<?xml version="1.0" encoding="UTF-8" standalone="no"?>
<svg
   xmlns:dc="http://purl.org/dc/elements/1.1/"
   xmlns:cc="http://creativecommons.org/ns#"
   xmlns:rdf="http://www.w3.org/1999/02/22-rdf-syntax-ns#"
   xmlns:svg="http://www.w3.org/2000/svg"
   xmlns="http://www.w3.org/2000/svg"
   xmlns:sodipodi="http://sodipodi.sourceforge.net/DTD/sodipodi-0.dtd"
   xmlns:inkscape="http://www.inkscape.org/namespaces/inkscape"
   width="149.95523mm"
   height="41.641888mm"
   viewBox="0 0 149.95523 41.641888"
   version="1.1"
   id="svg980"
   inkscape:export-filename="/home/jake/NEATransfer/img/outlineimg.png"
   inkscape:export-xdpi="300"
   inkscape:export-ydpi="300"
   inkscape:version="1.0.1 (3bc2e813f5, 2020-09-07)"
   sodipodi:docname="outline.svg">
  <defs
     id="defs974">
    <marker
       style="overflow:visible"
       id="TriangleOutM"
       refX="0"
       refY="0"
       orient="auto"
       inkscape:stockid="TriangleOutM"
       inkscape:isstock="true">
      <path
         transform="scale(0.4)"
         style="fill:#000000;fill-opacity:1;fill-rule:evenodd;stroke:#000000;stroke-width:1pt;stroke-opacity:1"
         d="M 5.77,0 -2.88,5 V -5 Z"
         id="path1709" />
    </marker>
    <marker
       style="overflow:visible"
       id="Tail"
       refX="0"
       refY="0"
       orient="auto"
       inkscape:stockid="Tail"
       inkscape:isstock="true">
      <g
         transform="scale(-1.2)"
         id="g1612"
         style="fill:#000000;fill-opacity:1;stroke:#000000;stroke-opacity:1">
        <path
           style="fill:#000000;fill-opacity:1;fill-rule:evenodd;stroke:#000000;stroke-width:0.8;stroke-linecap:round;stroke-opacity:1"
           d="M -3.8048674,-3.9585227 0.54352094,0"
           id="path1600" />
        <path
           style="fill:#000000;fill-opacity:1;fill-rule:evenodd;stroke:#000000;stroke-width:0.8;stroke-linecap:round;stroke-opacity:1"
           d="M -1.2866832,-3.9585227 3.0617053,0"
           id="path1602" />
        <path
           style="fill:#000000;fill-opacity:1;fill-rule:evenodd;stroke:#000000;stroke-width:0.8;stroke-linecap:round;stroke-opacity:1"
           d="M 1.3053582,-3.9585227 5.6537466,0"
           id="path1604" />
        <path
           style="fill:#000000;fill-opacity:1;fill-rule:evenodd;stroke:#000000;stroke-width:0.8;stroke-linecap:round;stroke-opacity:1"
           d="M -3.8048674,4.1775838 0.54352094,0.21974226"
           id="path1606" />
        <path
           style="fill:#000000;fill-opacity:1;fill-rule:evenodd;stroke:#000000;stroke-width:0.8;stroke-linecap:round;stroke-opacity:1"
           d="M -1.2866832,4.1775838 3.0617053,0.21974226"
           id="path1608" />
        <path
           style="fill:#000000;fill-opacity:1;fill-rule:evenodd;stroke:#000000;stroke-width:0.8;stroke-linecap:round;stroke-opacity:1"
           d="M 1.3053582,4.1775838 5.6537466,0.21974226"
           id="path1610" />
      </g>
    </marker>
    <marker
       style="overflow:visible"
       id="Arrow1Mend"
       refX="0"
       refY="0"
       orient="auto"
       inkscape:stockid="Arrow1Mend"
       inkscape:isstock="true">
      <path
         transform="matrix(-0.4,0,0,-0.4,-4,0)"
         style="fill:#000000;fill-opacity:1;fill-rule:evenodd;stroke:#000000;stroke-width:1pt;stroke-opacity:1"
         d="M 0,0 5,-5 -12.5,0 5,5 Z"
         id="path1573" />
    </marker>
    <marker
       style="overflow:visible"
       id="Arrow1Lend"
       refX="0"
       refY="0"
       orient="auto"
       inkscape:stockid="Arrow1Lend"
       inkscape:isstock="true">
      <path
         transform="matrix(-0.8,0,0,-0.8,-10,0)"
         style="fill:#000000;fill-opacity:1;fill-rule:evenodd;stroke:#000000;stroke-width:1pt;stroke-opacity:1"
         d="M 0,0 5,-5 -12.5,0 5,5 Z"
         id="path1567" />
    </marker>
    <inkscape:path-effect
       effect="show_handles"
       id="path-effect1560"
       is_visible="true"
       lpeversion="1"
       nodes="true"
       handles="true"
       original_path="true"
       show_center_node="false"
       original_d="false"
       scale_nodes_and_handles="5" />
  </defs>
  <sodipodi:namedview
     id="base"
     pagecolor="#ffffff"
     bordercolor="#666666"
     borderopacity="1.0"
     inkscape:pageopacity="0.0"
     inkscape:pageshadow="2"
     inkscape:zoom="1.4"
     inkscape:cx="249.24734"
     inkscape:cy="147.55933"
     inkscape:document-units="mm"
     inkscape:current-layer="layer1"
     inkscape:document-rotation="0"
     showgrid="false"
     inkscape:window-width="1920"
     inkscape:window-height="1080"
     inkscape:window-x="0"
     inkscape:window-y="0"
     inkscape:window-maximized="1" />
  <metadata
     id="metadata977">
    <rdf:RDF>
      <cc:Work
         rdf:about="">
        <dc:format>image/svg+xml</dc:format>
        <dc:type
           rdf:resource="http://purl.org/dc/dcmitype/StillImage" />
        <dc:title></dc:title>
      </cc:Work>
    </rdf:RDF>
  </metadata>
  <g
     inkscape:label="Layer 1"
     inkscape:groupmode="layer"
     id="layer1"
     transform="translate(-24.479374,-75.020613)">
    <text
       xml:space="preserve"
       style="font-size:54.6432px;line-height:1.25;font-family:sans-serif;letter-spacing:0px;word-spacing:0px;fill:#000000;stroke:#000000;stroke-width:0.264584"
       x="24.611666"
       y="115.32232"
       id="text962"><tspan
         sodipodi:role="line"
         id="tspan960"
         x="24.611666"
         y="115.32232"
         style="fill:#000000;stroke:#000000;stroke-width:0.264584">Aa</tspan></text>
    <g
       aria-label="Aa"
       id="text1553"
       style="font-size:54.6432px;line-height:1.25;font-family:sans-serif;letter-spacing:0px;word-spacing:0px;fill:none;stroke:#000000;stroke-width:0.264583;stroke-linecap:butt"
       inkscape:path-effect="#path-effect1560">
      <path
         d="m 141.94689,115.32232 -4.69932,-12.07615 h -15.46402 l -4.64468,12.07615 h -4.97253 L 127.4118,76.143145 h 4.4261 l 15.19081,39.179175 z M 131.40075,87.071785 q -0.16393,-0.437146 -0.54643,-1.584653 -0.3825,-1.147507 -0.76501,-2.349658 -0.32786,-1.256793 -0.54643,-1.912512 -0.3825,1.693939 -0.87429,3.333235 -0.49179,1.584653 -0.81965,2.513588 l -4.4261,11.802931 h 12.34937 z m 10.54614,27.315095 0.93544,0.93544 -0.93544,0.93544 -0.93544,-0.93544 z m -4.69932,-12.07615 0.93544,0.93544 -0.93544,0.93544 -0.93544,-0.93544 z m -15.46402,0 0.93544,0.93544 -0.93544,0.93544 -0.93544,-0.93544 z m -4.64468,12.07615 0.93544,0.93544 -0.93544,0.93544 -0.93544,-0.93544 z m -4.97253,0 0.93544,0.93544 -0.93544,0.93544 -0.93544,-0.93544 z m 15.24546,-39.179177 0.93544,0.935442 -0.93544,0.935442 -0.93544,-0.935442 z m 4.4261,0 0.93544,0.935442 -0.93544,0.935442 -0.93544,-0.935442 z m 15.19081,39.179177 0.93544,0.93544 -0.93544,0.93544 -0.93544,-0.93544 z M 130.73929,86.410328 h 1.32292 v 1.322914 h -1.32292 z m 1.01519,0.370026 a 0.46302024,0.46302024 0 0 1 -0.46302,0.463021 0.46302024,0.46302024 0 0 1 -0.46302,-0.463021 0.46302024,0.46302024 0 0 1 0.46302,-0.46302 0.46302024,0.46302024 0 0 1 0.46302,0.46302 z m -0.35373,0.291431 -0.10929,-0.291431 m 0.28088,-0.528217 a 0.46302024,0.46302024 0 0 1 -0.46302,0.46302 0.46302024,0.46302024 0 0 1 -0.46302,-0.46302 0.46302024,0.46302024 0 0 1 0.46302,-0.463021 0.46302024,0.46302024 0 0 1 0.46302,0.463021 z m -0.71802,-0.765005 0.10858,0.325745 m -0.77004,-0.987202 h 1.32292 v 1.322914 h -1.32292 z m 0.86948,-0.103548 a 0.46302024,0.46302024 0 0 1 -0.46302,0.463021 0.46302024,0.46302024 0 0 1 -0.46302,-0.463021 0.46302024,0.46302024 0 0 1 0.46302,-0.46302 0.46302024,0.46302024 0 0 1 0.46302,0.46302 z m -0.20802,0.765005 -0.10858,-0.325745 m 0.0616,-1.222479 a 0.46302024,0.46302024 0 0 1 -0.46302,0.46302 0.46302024,0.46302024 0 0 1 -0.46302,-0.46302 0.46302024,0.46302024 0 0 1 0.46302,-0.46302 0.46302024,0.46302024 0 0 1 0.46302,0.46302 z m -0.71803,-0.801434 0.11461,0.360211 m -0.77607,-1.021668 h 1.32292 v 1.322914 h -1.32292 z m 0.90591,-0.176405 a 0.46302024,0.46302024 0 0 1 -0.46302,0.46302 0.46302024,0.46302024 0 0 1 -0.46302,-0.46302 0.46302024,0.46302024 0 0 1 0.46302,-0.46302 0.46302024,0.46302024 0 0 1 0.46302,0.46302 z m -0.24445,0.837862 -0.1017,-0.389836 m 0.164,-1.08553 a 0.46302024,0.46302024 0 0 1 -0.46302,0.46302 0.46302024,0.46302024 0 0 1 -0.46302,-0.46302 0.46302024,0.46302024 0 0 1 0.46302,-0.46302 0.46302024,0.46302024 0 0 1 0.46302,0.46302 z m -0.60873,-0.437146 0.14571,0.437146 m -0.14571,-1.372588 0.93544,0.935442 -0.93544,0.935442 -0.93544,-0.935442 z m 0.20802,2.064735 a 0.46302024,0.46302024 0 0 1 -0.46302,0.46302 0.46302024,0.46302024 0 0 1 -0.46302,-0.46302 0.46302024,0.46302024 0 0 1 0.46302,-0.463021 0.46302024,0.46302024 0 0 1 0.46302,0.463021 z m -0.20802,-1.129293 -0.15302,0.677644 m 0.0696,1.562727 a 0.46302024,0.46302024 0 0 1 -0.46302,0.46302 0.46302024,0.46302024 0 0 1 -0.46302,-0.46302 0.46302024,0.46302024 0 0 1 0.46302,-0.46302 0.46302024,0.46302024 0 0 1 0.46302,0.46302 z m -0.79088,1.092864 0.19481,-0.649371 m -0.85627,-0.01209 h 1.32292 v 1.322914 h -1.32292 z m 0.79662,1.717892 a 0.46302024,0.46302024 0 0 1 -0.46302,0.463021 0.46302024,0.46302024 0 0 1 -0.46302,-0.463021 0.46302024,0.46302024 0 0 1 0.46302,-0.46302 0.46302024,0.46302024 0 0 1 0.46302,0.46302 z m -0.13516,-1.056435 -0.19062,0.614221 m 0.0526,1.280077 a 0.46302024,0.46302024 0 0 1 -0.46302,0.46302 0.46302024,0.46302024 0 0 1 -0.46302,-0.46302 0.46302024,0.46302024 0 0 1 0.46302,-0.46302 0.46302024,0.46302024 0 0 1 0.46302,0.46302 z m -0.68159,0.61929 0.0645,-0.182666 m -0.72593,-0.478791 h 1.32292 v 1.322914 h -1.32292 z m -3.76464,11.528946 0.93544,0.935442 -0.93544,0.935442 -0.93544,-0.935442 z m 12.34937,0 0.93544,0.935442 -0.93544,0.935442 -0.93544,-0.935442 z"
         style="fill:none;stroke:#000000;stroke-width:0.264583;stroke-linecap:butt"
         id="path1555"
         inkscape:original-d="m 141.94689,115.32232 -4.69932,-12.07615 h -15.46402 l -4.64468,12.07615 h -4.97253 L 127.4118,76.143145 h 4.4261 l 15.19081,39.179175 z M 131.40075,87.071785 q -0.16393,-0.437146 -0.54643,-1.584653 -0.3825,-1.147507 -0.76501,-2.349658 -0.32786,-1.256793 -0.54643,-1.912512 -0.3825,1.693939 -0.87429,3.333235 -0.49179,1.584653 -0.81965,2.513588 l -4.4261,11.802931 h 12.34937 z" />
      <path
         d="m 162.82059,85.541775 q 5.35503,0 7.92326,2.349658 2.56823,2.349657 2.56823,7.486118 v 19.944769 h -3.49717 l -0.92893,-4.15288 h -0.21857 q -1.91251,2.4043 -4.0436,3.5518 -2.07644,1.14751 -5.79218,1.14751 -3.98895,0 -6.61183,-2.07644 -2.62287,-2.13109 -2.62287,-6.61183 0,-4.37145 3.44252,-6.72111 3.44252,-2.404302 10.60078,-2.622875 l 4.97253,-0.16393 v -1.748582 q 0,-3.661094 -1.58465,-5.081818 -1.58465,-1.420723 -4.48074,-1.420723 -2.29502,0 -4.37146,0.710362 -2.07644,0.655718 -3.87966,1.530009 l -1.47537,-3.606451 q 1.91251,-1.038221 4.53539,-1.748582 2.62287,-0.765005 5.46432,-0.765005 z m 1.42072,15.627955 q -5.46432,0.21857 -7.59541,1.74858 -2.07644,1.53001 -2.07644,4.31682 0,2.45894 1.47537,3.60645 1.53001,1.1475 3.87967,1.1475 3.71573,0 6.17468,-2.02179 2.45894,-2.07645 2.45894,-6.33862 v -2.62287 z m -2.08218,-16.289412 h 1.32292 v 1.322914 h -1.32292 z m 4.6945,0.661457 a 0.46302024,0.46302024 0 0 1 -0.46302,0.46302 0.46302024,0.46302024 0 0 1 -0.46302,-0.46302 0.46302024,0.46302024 0 0 1 0.46302,-0.46302 0.46302024,0.46302024 0 0 1 0.46302,0.46302 z m -4.03304,0 3.107,0 m 3.56713,0.783219 a 0.46302024,0.46302024 0 0 1 -0.46302,0.463021 0.46302024,0.46302024 0 0 1 -0.46302,-0.463021 0.46302024,0.46302024 0 0 1 0.46302,-0.46302 0.46302024,0.46302024 0 0 1 0.46302,0.46302 z m 1.24913,1.566439 -1.37053,-1.253894 m 0.70907,0.592437 h 1.32292 v 1.322914 h -1.32292 z m 2.83663,2.227895 a 0.46302024,0.46302024 0 0 1 -0.46302,0.46302 0.46302024,0.46302024 0 0 1 -0.46302,-0.46302 0.46302024,0.46302024 0 0 1 0.46302,-0.46302 0.46302024,0.46302024 0 0 1 0.46302,0.46302 z m -2.17517,-1.566438 1.37053,1.253893 m 1.66072,2.807918 a 0.46302024,0.46302024 0 0 1 -0.46302,0.46302 0.46302024,0.46302024 0 0 1 -0.46302,-0.46302 0.46302024,0.46302024 0 0 1 0.46302,-0.463021 0.46302024,0.46302024 0 0 1 0.46302,0.463021 z m -0.46302,3.424307 v -2.961287 m -0.66146,2.29983 h 1.32292 v 1.322914 h -1.32292 z m 0.66146,19.670786 0.93544,0.93544 -0.93544,0.93544 -0.93544,-0.93544 z m -3.49717,0 0.93544,0.93544 -0.93544,0.93544 -0.93544,-0.93544 z m -0.92893,-4.15288 0.93544,0.93544 -0.93544,0.93544 -0.93544,-0.93544 z m -0.21857,0 0.93544,0.93544 -0.93544,0.93544 -0.93544,-0.93544 z m -0.81199,2.53831 a 0.46302024,0.46302024 0 0 1 -0.46302,0.46302 0.46302024,0.46302024 0 0 1 -0.46302,-0.46302 0.46302024,0.46302024 0 0 1 0.46302,-0.46302 0.46302024,0.46302024 0 0 1 0.46302,0.46302 z m 0.81199,-1.60287 -0.98677,1.24051 m -1.17308,1.54629 a 0.46302024,0.46302024 0 0 1 -0.46302,0.46302 0.46302024,0.46302024 0 0 1 -0.46302,-0.46302 0.46302024,0.46302024 0 0 1 0.46302,-0.46302 0.46302024,0.46302024 0 0 1 0.46302,0.46302 z m -1.88375,0.765 1.01305,-0.54548 m -1.67451,-0.11598 h 1.32292 v 1.32292 h -1.32292 z m -0.25981,1.42647 a 0.46302024,0.46302024 0 0 1 -0.46302,0.46302 0.46302024,0.46302024 0 0 1 -0.46302,-0.46302 0.46302024,0.46302024 0 0 1 0.46302,-0.46302 0.46302024,0.46302024 0 0 1 0.46302,0.46302 z m 0.92127,-0.76501 -0.97904,0.54105 m -1.87296,0.60646 a 0.46302024,0.46302024 0 0 1 -0.46302,0.46302 0.46302024,0.46302024 0 0 1 -0.46302,-0.46302 0.46302024,0.46302024 0 0 1 0.46302,-0.46302 0.46302024,0.46302024 0 0 1 0.46302,0.46302 z m -2.94018,0 h 2.01414 m -2.6756,-0.66146 h 1.32292 v 1.32292 h -1.32292 z m -1.53482,0.66146 a 0.46302024,0.46302024 0 0 1 -0.46302,0.46302 0.46302024,0.46302024 0 0 1 -0.46302,-0.46302 0.46302024,0.46302024 0 0 1 0.46302,-0.46302 0.46302024,0.46302024 0 0 1 0.46302,0.46302 z m 2.19628,0 h -2.19628 m -2.20394,-0.69215 a 0.46302024,0.46302024 0 0 1 -0.46302,0.46302 0.46302024,0.46302024 0 0 1 -0.46302,-0.46302 0.46302024,0.46302024 0 0 1 0.46302,-0.46302 0.46302024,0.46302024 0 0 1 0.46302,0.46302 z m -2.21161,-1.38429 1.38556,1.0969 m -2.04702,-1.75836 h 1.32292 v 1.32292 h -1.32292 z m -0.6241,-0.75927 a 0.46302024,0.46302024 0 0 1 -0.46302,0.46302 0.46302024,0.46302024 0 0 1 -0.46302,-0.46302 0.46302024,0.46302024 0 0 1 0.46302,-0.46302 0.46302024,0.46302024 0 0 1 0.46302,0.46302 z m 1.28556,1.42073 -1.38922,-1.12875 m -0.77063,-2.49592 a 0.46302024,0.46302024 0 0 1 -0.46302,0.46302 0.46302024,0.46302024 0 0 1 -0.46302,-0.46302 0.46302024,0.46302024 0 0 1 0.46302,-0.46302 0.46302024,0.46302024 0 0 1 0.46302,0.46302 z m -0.46302,-2.98716 0,2.52414 m -0.66146,-3.1856 h 1.32292 v 1.32292 h -1.32292 z m 1.12448,-2.25284 a 0.46302024,0.46302024 0 0 1 -0.46302,0.46302 0.46302024,0.46302024 0 0 1 -0.46302,-0.46302 0.46302024,0.46302024 0 0 1 0.46302,-0.46302 0.46302024,0.46302024 0 0 1 0.46302,0.46302 z m -0.46302,2.9143 v -2.45128 m 1.61053,-2.70339 a 0.46302024,0.46302024 0 0 1 -0.46302,0.46302 0.46302024,0.46302024 0 0 1 -0.46302,-0.46302 0.46302024,0.46302024 0 0 1 0.46302,-0.46302 0.46302024,0.46302024 0 0 1 0.46302,0.46302 z m 1.83199,-1.56644 -1.91258,1.30542 m 1.25112,-1.966877 h 1.32292 v 1.322917 h -1.32292 z m 3.41949,-0.941411 a 0.46302024,0.46302024 0 0 1 -0.46302,0.46302 0.46302024,0.46302024 0 0 1 -0.46302,-0.46302 0.46302024,0.46302024 0 0 1 0.46302,-0.46302 0.46302024,0.46302024 0 0 1 0.46302,0.46302 z m -2.75803,1.602868 1.91541,-1.337748 m 4.37622,-1.139412 a 0.46302024,0.46302024 0 0 1 -0.46302,0.463021 0.46302024,0.46302024 0 0 1 -0.46302,-0.463021 0.46302024,0.46302024 0 0 1 0.46302,-0.46302 0.46302024,0.46302024 0 0 1 0.46302,0.46302 z m 4.30915,-0.145715 -4.30937,0.131584 m 3.64791,-0.793041 h 1.32292 v 1.322914 h -1.32292 z m 5.63399,-0.437915 0.93544,0.935442 -0.93544,0.935442 -0.93544,-0.935442 z m -0.66146,-1.474597 h 1.32292 v 1.322914 h -1.32292 z m 1.12448,-1.779272 a 0.46302024,0.46302024 0 0 1 -0.46302,0.46302 0.46302024,0.46302024 0 0 1 -0.46302,-0.46302 0.46302024,0.46302024 0 0 1 0.46302,-0.463021 0.46302024,0.46302024 0 0 1 0.46302,0.463021 z m -0.46302,2.440729 v -1.977709 m -0.0652,-2.15696 a 0.46302024,0.46302024 0 0 1 -0.46302,0.463021 0.46302024,0.46302024 0 0 1 -0.46302,-0.463021 0.46302024,0.46302024 0 0 1 0.46302,-0.46302 0.46302024,0.46302024 0 0 1 0.46302,0.46302 z m -1.51945,-0.947149 0.71168,0.638062 m -1.37314,-1.299519 h 1.32292 v 1.322914 h -1.32292 z m 0.068,-0.285692 a 0.46302024,0.46302024 0 0 1 -0.46302,0.463021 0.46302024,0.46302024 0 0 1 -0.46302,-0.463021 0.46302024,0.46302024 0 0 1 0.46302,-0.46302 0.46302024,0.46302024 0 0 1 0.46302,0.46302 z m 0.59341,0.947149 -0.71168,-0.638062 m -1.37531,-0.782661 a 0.46302024,0.46302024 0 0 1 -0.46302,0.46302 0.46302024,0.46302024 0 0 1 -0.46302,-0.46302 0.46302024,0.46302024 0 0 1 0.46302,-0.46302 0.46302024,0.46302024 0 0 1 0.46302,0.46302 z m -2.39375,0 1.46771,0 m -2.12917,-0.661457 h 1.32292 v 1.322914 h -1.32292 z m -0.40553,0.661457 a 0.46302024,0.46302024 0 0 1 -0.46302,0.46302 0.46302024,0.46302024 0 0 1 -0.46302,-0.46302 0.46302024,0.46302024 0 0 1 0.46302,-0.46302 0.46302024,0.46302024 0 0 1 0.46302,0.46302 z m 1.06699,0 -1.06699,0 m -1.45716,0.236787 a 0.46302024,0.46302024 0 0 1 -0.46302,0.463021 0.46302024,0.46302024 0 0 1 -0.46302,-0.463021 0.46302024,0.46302024 0 0 1 0.46302,-0.46302 0.46302024,0.46302024 0 0 1 0.46302,0.46302 z m -1.84731,0.473575 0.9462,-0.323701 m -1.60766,-0.337756 h 1.32292 v 1.322914 h -1.32292 z m -0.25981,1.098602 a 0.46302024,0.46302024 0 0 1 -0.46302,0.463021 0.46302024,0.46302024 0 0 1 -0.46302,-0.463021 0.46302024,0.46302024 0 0 1 0.46302,-0.46302 0.46302024,0.46302024 0 0 1 0.46302,0.46302 z m 0.92127,-0.437145 -0.94277,0.297715 m -1.27172,0.649433 a 0.46302024,0.46302024 0 0 1 -0.46302,0.463021 0.46302024,0.46302024 0 0 1 -0.46302,-0.463021 0.46302024,0.46302024 0 0 1 0.46302,-0.46302 0.46302024,0.46302024 0 0 1 0.46302,0.46302 z m -1.66517,0.582861 0.78551,-0.380857 m -0.78551,-0.554585 0.93544,0.935442 -0.93544,0.935442 -0.93544,-0.935442 z m -1.47537,-3.606451 0.93544,0.935442 -0.93544,0.935442 -0.93544,-0.935442 z m 1.73803,0.243295 a 0.46302024,0.46302024 0 0 1 -0.46302,0.46302 0.46302024,0.46302024 0 0 1 -0.46302,-0.46302 0.46302024,0.46302024 0 0 1 0.46302,-0.463021 0.46302024,0.46302024 0 0 1 0.46302,0.463021 z m -1.73803,0.692147 0.86808,-0.471244 m 2.38174,-0.803764 a 0.46302024,0.46302024 0 0 1 -0.46302,0.46302 0.46302024,0.46302024 0 0 1 -0.46302,-0.46302 0.46302024,0.46302024 0 0 1 0.46302,-0.46302 0.46302024,0.46302024 0 0 1 0.46302,0.46302 z m 1.28557,-0.473574 -1.30167,0.352534 m 0.64021,-1.013991 h 1.32292 v 1.322914 h -1.32292 z m 2.87306,0.151454 a 0.46302024,0.46302024 0 0 1 -0.46302,0.46302 0.46302024,0.46302024 0 0 1 -0.46302,-0.46302 0.46302024,0.46302024 0 0 1 0.46302,-0.463021 0.46302024,0.46302024 0 0 1 0.46302,0.463021 z m -2.2116,0.510003 1.30408,-0.380357 m 2.72896,-0.384648 a 0.46302024,0.46302024 0 0 1 -0.46302,0.46302 0.46302024,0.46302024 0 0 1 -0.46302,-0.46302 0.46302024,0.46302024 0 0 1 0.46302,-0.46302 0.46302024,0.46302024 0 0 1 0.46302,0.46302 z m 1.43128,0 -1.43128,0 m 2.19054,14.966495 h 1.32292 v 1.32292 h -1.32292 z m -2.5184,0.80717 a 0.46302024,0.46302024 0 0 1 -0.46302,0.46302 0.46302024,0.46302024 0 0 1 -0.46302,-0.46302 0.46302024,0.46302024 0 0 1 0.46302,-0.46302 0.46302024,0.46302024 0 0 1 0.46302,0.46302 z m 3.17986,-0.14571 -3.18023,0.12721 m -2.53143,0.60136 a 0.46302024,0.46302024 0 0 1 -0.46302,0.46302 0.46302024,0.46302024 0 0 1 -0.46302,-0.46302 0.46302024,0.46302024 0 0 1 0.46302,-0.46302 0.46302024,0.46302024 0 0 1 0.46302,0.46302 z m -1.88375,1.02001 1.0446,-0.74997 m -1.70606,0.0885 h 1.32292 v 1.32292 h -1.32292 z m -0.25981,1.68147 a 0.46302024,0.46302024 0 0 1 -0.46302,0.46302 0.46302024,0.46302024 0 0 1 -0.46302,-0.46302 0.46302024,0.46302024 0 0 1 0.46302,-0.46302 0.46302024,0.46302024 0 0 1 0.46302,0.46302 z m 0.92127,-1.02001 -1.01154,0.74534 m -0.60188,1.71361 a 0.46302024,0.46302024 0 0 1 -0.46302,0.46302 0.46302024,0.46302024 0 0 1 -0.46302,-0.46302 0.46302024,0.46302024 0 0 1 0.46302,-0.46302 0.46302024,0.46302024 0 0 1 0.46302,0.46302 z m -0.46302,1.85787 v -1.39485 m -0.66146,0.73339 h 1.32292 v 1.32292 H 153.908 Z m 1.12448,2.30075 a 0.46302024,0.46302024 0 0 1 -0.46302,0.46302 0.46302024,0.46302024 0 0 1 -0.46302,-0.46302 0.46302024,0.46302024 0 0 1 0.46302,-0.46302 0.46302024,0.46302024 0 0 1 0.46302,0.46302 z m -0.46302,-1.63929 v 1.17627 m 0.95481,1.66517 a 0.46302024,0.46302024 0 0 1 -0.46302,0.46302 0.46302024,0.46302024 0 0 1 -0.46302,-0.46302 0.46302024,0.46302024 0 0 1 0.46302,-0.46302 0.46302024,0.46302024 0 0 1 0.46302,0.46302 z m 0.52056,0.76501 -0.61809,-0.48074 m -0.0434,-0.18072 h 1.32292 v 1.32292 h -1.32292 z m 2.14449,1.42646 a 0.46302024,0.46302024 0 0 1 -0.46302,0.46302 0.46302024,0.46302024 0 0 1 -0.46302,-0.46302 0.46302024,0.46302024 0 0 1 0.46302,-0.46302 0.46302024,0.46302024 0 0 1 0.46302,0.46302 z m -1.48303,-0.765 0.64959,0.48719 m 2.12666,0.66031 a 0.46302024,0.46302024 0 0 1 -0.46302,0.46302 0.46302024,0.46302024 0 0 1 -0.46302,-0.46302 0.46302024,0.46302024 0 0 1 0.46302,-0.46302 0.46302024,0.46302024 0 0 1 0.46302,0.46302 z m 1.10342,0 h -1.10342 m 0.44196,-0.66146 h 1.32292 v 1.32292 h -1.32292 z m 3.60163,0.66146 a 0.46302024,0.46302024 0 0 1 -0.46302,0.46302 0.46302024,0.46302024 0 0 1 -0.46302,-0.46302 0.46302024,0.46302024 0 0 1 0.46302,-0.46302 0.46302024,0.46302024 0 0 1 0.46302,0.46302 z m -2.94017,0 h 2.01413 m 2.98427,-0.67393 a 0.46302024,0.46302024 0 0 1 -0.46302,0.46302 0.46302024,0.46302024 0 0 1 -0.46302,-0.46302 0.46302024,0.46302024 0 0 1 0.46302,-0.46302 0.46302024,0.46302024 0 0 1 0.46302,0.46302 z m 1.17628,-1.34786 -1.28165,1.05379 m 0.62019,-1.71525 h 1.32292 v 1.32292 h -1.32292 z m 2.76377,-0.72284 a 0.46302024,0.46302024 0 0 1 -0.46302,0.46302 0.46302024,0.46302024 0 0 1 -0.46302,-0.46302 0.46302024,0.46302024 0 0 1 0.46302,-0.46302 0.46302024,0.46302024 0 0 1 0.46302,0.46302 z m -2.10231,1.3843 1.28553,-1.08557 m 1.63643,-2.4116 a 0.46302024,0.46302024 0 0 1 -0.46302,0.46302 0.46302024,0.46302024 0 0 1 -0.46302,-0.46302 0.46302024,0.46302024 0 0 1 0.46302,-0.46302 0.46302024,0.46302024 0 0 1 0.46302,0.46302 z m -0.46302,-2.84145 v 2.37843 m -0.66146,-3.03989 h 1.32292 v 1.32292 h -1.32292 z m 0.66146,-2.89685 0.93544,0.93544 -0.93544,0.93544 -0.93544,-0.93544 z"
         style="fill:none;stroke:#000000;stroke-width:0.264583;stroke-linecap:butt"
         id="path1557"
         inkscape:original-d="m 162.82059,85.541775 q 5.35503,0 7.92326,2.349658 2.56823,2.349657 2.56823,7.486118 v 19.944769 h -3.49717 l -0.92893,-4.15288 h -0.21857 q -1.91251,2.4043 -4.0436,3.5518 -2.07644,1.14751 -5.79218,1.14751 -3.98895,0 -6.61183,-2.07644 -2.62287,-2.13109 -2.62287,-6.61183 0,-4.37145 3.44252,-6.72111 3.44252,-2.404302 10.60078,-2.622875 l 4.97253,-0.16393 v -1.748582 q 0,-3.661094 -1.58465,-5.081818 -1.58465,-1.420723 -4.48074,-1.420723 -2.29502,0 -4.37146,0.710362 -2.07644,0.655718 -3.87966,1.530009 l -1.47537,-3.606451 q 1.91251,-1.038221 4.53539,-1.748582 2.62287,-0.765005 5.46432,-0.765005 z m 1.42072,15.627955 q -5.46432,0.21857 -7.59541,1.74858 -2.07644,1.53001 -2.07644,4.31682 0,2.45894 1.47537,3.60645 1.53001,1.1475 3.87967,1.1475 3.71573,0 6.17468,-2.02179 2.45894,-2.07645 2.45894,-6.33862 v -2.62287 z" />
    </g>
    <path
       style="fill:none;stroke:#000000;stroke-width:1.365;stroke-linecap:butt;stroke-linejoin:miter;stroke-miterlimit:4;stroke-dasharray:none;stroke-opacity:1;marker-end:url(#TriangleOutM)"
       d="M 94.663288,96.341704 H 105.89129"
       id="path1562" />
  </g>
</svg>
